<mxfile modified="2023-08-17T06:55:18.254Z" host="app.diagrams.net" agent="Mozilla/5.0 (Windows NT 10.0; Win64; x64) AppleWebKit/537.36 (KHTML, like Gecko) Chrome/115.0.0.0 Safari/537.36 Edg/115.0.1901.203" etag="C-WpQmf07HcO3XjR45xE" version="21.6.7" type="github">
  <diagram id="WI9T0HZ2pTsCkuznbFz-" name="Page-1">
    <mxGraphModel dx="1971" dy="788" grid="1" gridSize="10" guides="1" tooltips="1" connect="1" arrows="1" fold="1" page="1" pageScale="1" pageWidth="1169" pageHeight="827" math="0" shadow="0">
      <root>
        <mxCell id="0" />
        <mxCell id="1" parent="0" />
        <mxCell id="KmqUYEmT7BQd-I0ydzKp-13" value="" style="whiteSpace=wrap;html=1;fillColor=none;" vertex="1" parent="1">
          <mxGeometry x="420" y="110" width="240" height="137" as="geometry" />
        </mxCell>
        <mxCell id="KmqUYEmT7BQd-I0ydzKp-11" value="" style="edgeStyle=none;rounded=0;orthogonalLoop=1;jettySize=auto;html=1;endArrow=none;endFill=0;" edge="1" parent="1" source="KmqUYEmT7BQd-I0ydzKp-14" target="KmqUYEmT7BQd-I0ydzKp-4">
          <mxGeometry relative="1" as="geometry" />
        </mxCell>
        <mxCell id="KmqUYEmT7BQd-I0ydzKp-1" value="Web アプリケーション" style="image;aspect=fixed;html=1;points=[];align=center;fontSize=12;image=img/lib/azure2/app_services/App_Services.svg;" vertex="1" parent="1">
          <mxGeometry x="330" y="140" width="64" height="64" as="geometry" />
        </mxCell>
        <mxCell id="KmqUYEmT7BQd-I0ydzKp-2" value="" style="image;aspect=fixed;html=1;points=[];align=center;fontSize=12;image=img/lib/azure2/databases/SQL_Database.svg;" vertex="1" parent="1">
          <mxGeometry x="700" y="139" width="48" height="64" as="geometry" />
        </mxCell>
        <mxCell id="KmqUYEmT7BQd-I0ydzKp-3" value="AAD 認証" style="image;aspect=fixed;html=1;points=[];align=center;fontSize=12;image=img/lib/azure2/identity/Azure_Active_Directory.svg;" vertex="1" parent="1">
          <mxGeometry x="430" y="20" width="70" height="64" as="geometry" />
        </mxCell>
        <mxCell id="KmqUYEmT7BQd-I0ydzKp-12" value="" style="edgeStyle=none;rounded=0;orthogonalLoop=1;jettySize=auto;html=1;endArrow=none;endFill=0;" edge="1" parent="1" source="KmqUYEmT7BQd-I0ydzKp-4" target="KmqUYEmT7BQd-I0ydzKp-2">
          <mxGeometry relative="1" as="geometry" />
        </mxCell>
        <mxCell id="KmqUYEmT7BQd-I0ydzKp-4" value="" style="image;aspect=fixed;html=1;points=[];align=center;fontSize=12;image=img/lib/azure2/networking/Private_Endpoint.svg;" vertex="1" parent="1">
          <mxGeometry x="620" y="156.34" width="32" height="29.33" as="geometry" />
        </mxCell>
        <mxCell id="KmqUYEmT7BQd-I0ydzKp-5" value="" style="image;aspect=fixed;html=1;points=[];align=center;fontSize=12;image=img/lib/azure2/networking/Virtual_Networks.svg;" vertex="1" parent="1">
          <mxGeometry x="585" y="203" width="67" height="40" as="geometry" />
        </mxCell>
        <mxCell id="KmqUYEmT7BQd-I0ydzKp-8" value="閲覧・編集" style="sketch=0;outlineConnect=0;fontColor=#232F3E;gradientColor=none;fillColor=#232F3D;strokeColor=none;dashed=0;verticalLabelPosition=bottom;verticalAlign=top;align=center;html=1;fontSize=12;fontStyle=0;aspect=fixed;pointerEvents=1;shape=mxgraph.aws4.users;" vertex="1" parent="1">
          <mxGeometry x="190" y="62" width="78" height="78" as="geometry" />
        </mxCell>
        <mxCell id="KmqUYEmT7BQd-I0ydzKp-10" value="" style="edgeStyle=none;orthogonalLoop=1;jettySize=auto;html=1;entryX=0.438;entryY=-0.031;entryDx=0;entryDy=0;entryPerimeter=0;rounded=0;endArrow=none;endFill=0;" edge="1" parent="1" source="KmqUYEmT7BQd-I0ydzKp-3" target="KmqUYEmT7BQd-I0ydzKp-1">
          <mxGeometry width="80" relative="1" as="geometry">
            <mxPoint x="322" y="51.5" as="sourcePoint" />
            <mxPoint x="402" y="51.5" as="targetPoint" />
            <Array as="points">
              <mxPoint x="360" y="50" />
            </Array>
          </mxGeometry>
        </mxCell>
        <mxCell id="KmqUYEmT7BQd-I0ydzKp-15" value="" style="edgeStyle=none;rounded=0;orthogonalLoop=1;jettySize=auto;html=1;" edge="1" parent="1" source="KmqUYEmT7BQd-I0ydzKp-1" target="KmqUYEmT7BQd-I0ydzKp-14">
          <mxGeometry relative="1" as="geometry">
            <mxPoint x="394" y="172" as="sourcePoint" />
            <mxPoint x="660" y="171" as="targetPoint" />
          </mxGeometry>
        </mxCell>
        <mxCell id="KmqUYEmT7BQd-I0ydzKp-14" value="" style="verticalLabelPosition=bottom;html=1;verticalAlign=top;align=center;strokeColor=none;fillColor=#00BEF2;shape=mxgraph.azure.service_endpoint;direction=west;" vertex="1" parent="1">
          <mxGeometry x="394" y="161" width="50" height="20" as="geometry" />
        </mxCell>
        <mxCell id="KmqUYEmT7BQd-I0ydzKp-17" value="" style="edgeStyle=none;rounded=0;orthogonalLoop=1;jettySize=auto;html=1;" edge="1" parent="1" source="KmqUYEmT7BQd-I0ydzKp-16" target="KmqUYEmT7BQd-I0ydzKp-1">
          <mxGeometry relative="1" as="geometry" />
        </mxCell>
        <mxCell id="KmqUYEmT7BQd-I0ydzKp-16" value="データ抽出" style="image;aspect=fixed;html=1;points=[];align=center;fontSize=12;image=img/lib/azure2/storage/Import_Export_Jobs.svg;" vertex="1" parent="1">
          <mxGeometry x="197" y="204" width="64" height="67" as="geometry" />
        </mxCell>
      </root>
    </mxGraphModel>
  </diagram>
</mxfile>
